<?xml version="1.0" encoding="utf-8"?>
<svg viewBox="0 0 24 24" width="24" height="24" xmlns="http://www.w3.org/2000/svg">
  <path d="M 12.781 2.375 C 12.4 1.9 11.6 1.9 11.219 2.375 L 3.219 12.375 C 2.739 12.978 3.091 13.874 3.853 13.989 C 3.901 13.996 3.951 14 4 14 L 8 14 L 8 21 C 8 21.552 8.448 22 9 22 L 15 22 C 15.552 22 16 21.552 16 21 L 16 14 L 20 14 C 20.771 13.999 21.251 13.164 20.864 12.497 C 20.84 12.454 20.812 12.414 20.781 12.375 L 12.781 2.375 Z M 15 12 L 14 12 L 12.132 12.056 L 11.533 10.383 L 10 12 L 6.081 12 L 12.418 13.521 L 17.919 12 L 15 12 Z" style="fill: rgb(22, 163, 0);"/>
</svg>